<svg width="22" height="22" viewBox="0 0 22 22" fill="none" xmlns="http://www.w3.org/2000/svg">
<mask id="path-1-inside-1_909_605" fill="white">
<path d="M11 15C11.7911 15 12.5644 14.7654 13.2222 14.3259C13.88 13.8864 14.3927 13.2616 14.6955 12.5307C14.9982 11.7998 15.0774 10.9956 14.9231 10.2196C14.7688 9.44372 14.3878 8.73098 13.8284 8.17157C13.269 7.61216 12.5562 7.2312 11.7803 7.07686C11.0044 6.92252 10.2001 7.00173 9.46922 7.30448C8.73832 7.60723 8.11361 8.11992 7.67408 8.77772C7.23455 9.43552 6.99996 10.2089 6.99996 11C6.99996 12.0609 7.42138 13.0783 8.17153 13.8284C8.92168 14.5786 9.93909 15 11 15ZM11 9C11.3955 9 11.7822 9.1173 12.1111 9.33706C12.44 9.55682 12.6963 9.86918 12.8477 10.2346C12.9991 10.6001 13.0387 11.0022 12.9615 11.3902C12.8844 11.7781 12.6939 12.1345 12.4142 12.4142C12.1345 12.6939 11.7781 12.8844 11.3901 12.9616C11.0022 13.0387 10.6 12.9991 10.2346 12.8478C9.86914 12.6964 9.55678 12.44 9.33702 12.1111C9.11726 11.7822 8.99996 11.3956 8.99996 11C8.99996 10.4696 9.21067 9.96086 9.58574 9.58579C9.96082 9.21071 10.4695 9 11 9ZM2.49996 11.877L1.49996 12.456C1.27243 12.5872 1.07298 12.762 0.913004 12.9703C0.753026 13.1787 0.635653 13.4165 0.567586 13.6702C0.49952 13.9239 0.482093 14.1885 0.516301 14.4489C0.55051 14.7093 0.635683 14.9605 0.766958 15.188L2.25596 17.766C2.38712 17.9939 2.56192 18.1937 2.77037 18.3539C2.97882 18.5142 3.21682 18.6317 3.47076 18.6999C3.7247 18.7681 3.98958 18.7855 4.25026 18.7512C4.51094 18.7169 4.7623 18.6315 4.98996 18.5L5.99996 17.916C6.15409 17.829 6.32845 17.7842 6.50543 17.7861C6.68242 17.7881 6.85576 17.8367 7.00796 17.927C7.15827 18.014 7.2831 18.139 7.36996 18.2894C7.45683 18.4398 7.50269 18.6103 7.50296 18.784V20C7.50296 20.5304 7.71367 21.0391 8.08874 21.4142C8.46382 21.7893 8.97253 22 9.50296 22H12.503C13.0334 22 13.5421 21.7893 13.9172 21.4142C14.2922 21.0391 14.503 20.5304 14.503 20V18.782C14.5056 18.6075 14.5535 18.4367 14.6419 18.2862C14.7303 18.1358 14.8562 18.0108 15.0074 17.9236C15.1585 17.8363 15.3297 17.7898 15.5042 17.7884C15.6787 17.7871 15.8505 17.8311 16.003 17.916L17.012 18.498C17.4713 18.7632 18.0172 18.8351 18.5296 18.6978C19.0419 18.5605 19.4787 18.2253 19.744 17.766L21.232 15.188C21.3632 14.9605 21.4484 14.7093 21.4826 14.4489C21.5168 14.1885 21.4994 13.9239 21.4313 13.6702C21.3633 13.4165 21.2459 13.1787 21.0859 12.9703C20.9259 12.762 20.7265 12.5872 20.499 12.456L19.499 11.877C19.3439 11.7867 19.2157 11.6565 19.1278 11.5001C19.0399 11.3436 18.9954 11.1664 18.999 10.987C18.9993 10.8118 19.0457 10.6398 19.1334 10.4881C19.2212 10.3365 19.3472 10.2106 19.499 10.123L20.499 9.544C20.7265 9.41276 20.9259 9.23798 21.0859 9.02965C21.2459 8.82132 21.3633 8.58352 21.4313 8.32982C21.4994 8.07613 21.5168 7.81151 21.4826 7.55108C21.4484 7.29065 21.3632 7.03951 21.232 6.812L19.742 4.234C19.6108 4.00639 19.4361 3.80684 19.2278 3.64677C19.0195 3.48669 18.7817 3.36922 18.528 3.30106C18.2743 3.23289 18.0097 3.21538 17.7492 3.24952C17.4887 3.28365 17.2375 3.36877 17.01 3.5L16 4.083C15.8475 4.16828 15.6755 4.21248 15.5008 4.21125C15.3261 4.21002 15.1547 4.1634 15.0035 4.07598C14.8522 3.98856 14.7263 3.86332 14.638 3.71256C14.5497 3.5618 14.5022 3.39069 14.5 3.216V2C14.5 1.46957 14.2892 0.960859 13.9142 0.585786C13.5391 0.210714 13.0304 0 12.5 0H9.49996C8.96953 0 8.46082 0.210714 8.08574 0.585786C7.71067 0.960859 7.49996 1.46957 7.49996 2V3.294C7.49993 3.44408 7.46035 3.5915 7.38521 3.72141C7.31008 3.85132 7.20203 3.95914 7.07196 4.034L6.91796 4.123C6.78781 4.19699 6.64067 4.23589 6.49096 4.23589C6.34125 4.23589 6.19411 4.19699 6.06396 4.123L4.98996 3.5C4.76246 3.36853 4.51129 3.28317 4.2508 3.24881C3.99031 3.21444 3.72559 3.23174 3.47179 3.29972C3.21798 3.3677 2.98006 3.48502 2.77161 3.64499C2.56317 3.80495 2.38828 4.00442 2.25696 4.232L0.768958 6.813C0.503987 7.27215 0.432143 7.81771 0.569213 8.3298C0.706283 8.84189 1.04105 9.27861 1.49996 9.544L2.49996 10.122C2.65492 10.2127 2.78292 10.3431 2.87079 10.4997C2.95867 10.6563 3.00325 10.8335 2.99996 11.013C3.00021 11.1883 2.95409 11.3606 2.86628 11.5123C2.77847 11.6641 2.65209 11.7899 2.49996 11.877ZM3.49996 8.39L2.49996 7.812L3.98996 5.234L5.06396 5.854C5.49754 6.10317 5.98888 6.23429 6.48896 6.23429C6.98904 6.23429 7.48037 6.10317 7.91396 5.854L8.06796 5.766C8.50219 5.51541 8.86301 5.15519 9.11432 4.72137C9.36562 4.28755 9.4986 3.79535 9.49996 3.294V2H12.5V3.216C12.502 3.74183 12.6419 4.25793 12.9057 4.71284C13.1694 5.16775 13.5478 5.54558 14.0031 5.80864C14.4584 6.0717 14.9747 6.21082 15.5005 6.21211C16.0264 6.2134 16.5434 6.07682 17 5.816L18.007 5.234L19.5 7.812L18.5 8.39C18.0446 8.65664 17.667 9.03779 17.4046 9.49557C17.1421 9.95335 17.0041 10.4718 17.0041 10.9995C17.0041 11.5272 17.1421 12.0456 17.4046 12.5034C17.667 12.9612 18.0446 13.3424 18.5 13.609L19.5 14.188L18.012 16.766L17 16.184C16.5434 15.9232 16.0264 15.7866 15.5005 15.7879C14.9747 15.7892 14.4584 15.9283 14.0031 16.1914C13.5478 16.4544 13.1694 16.8322 12.9057 17.2872C12.6419 17.7421 12.502 18.2582 12.5 18.784V20H9.49996V18.784C9.49848 18.2579 9.35897 17.7415 9.09537 17.2862C8.83177 16.8309 8.45331 16.4528 7.9978 16.1897C7.5423 15.9265 7.0257 15.7874 6.49964 15.7864C5.97357 15.7855 5.45645 15.9225 4.99996 16.184L3.99296 16.766L2.49996 14.188L3.49996 13.609C3.9553 13.3424 4.33294 12.9612 4.59536 12.5034C4.85779 12.0456 4.99586 11.5272 4.99586 10.9995C4.99586 10.4718 4.85779 9.95335 4.59536 9.49557C4.33294 9.03779 3.9553 8.65664 3.49996 8.39Z"/>
</mask>
<path d="M11 15C11.7911 15 12.5644 14.7654 13.2222 14.3259C13.88 13.8864 14.3927 13.2616 14.6955 12.5307C14.9982 11.7998 15.0774 10.9956 14.9231 10.2196C14.7688 9.44372 14.3878 8.73098 13.8284 8.17157C13.269 7.61216 12.5562 7.2312 11.7803 7.07686C11.0044 6.92252 10.2001 7.00173 9.46922 7.30448C8.73832 7.60723 8.11361 8.11992 7.67408 8.77772C7.23455 9.43552 6.99996 10.2089 6.99996 11C6.99996 12.0609 7.42138 13.0783 8.17153 13.8284C8.92168 14.5786 9.93909 15 11 15ZM11 9C11.3955 9 11.7822 9.1173 12.1111 9.33706C12.44 9.55682 12.6963 9.86918 12.8477 10.2346C12.9991 10.6001 13.0387 11.0022 12.9615 11.3902C12.8844 11.7781 12.6939 12.1345 12.4142 12.4142C12.1345 12.6939 11.7781 12.8844 11.3901 12.9616C11.0022 13.0387 10.6 12.9991 10.2346 12.8478C9.86914 12.6964 9.55678 12.44 9.33702 12.1111C9.11726 11.7822 8.99996 11.3956 8.99996 11C8.99996 10.4696 9.21067 9.96086 9.58574 9.58579C9.96082 9.21071 10.4695 9 11 9ZM2.49996 11.877L1.49996 12.456C1.27243 12.5872 1.07298 12.762 0.913004 12.9703C0.753026 13.1787 0.635653 13.4165 0.567586 13.6702C0.49952 13.9239 0.482093 14.1885 0.516301 14.4489C0.55051 14.7093 0.635683 14.9605 0.766958 15.188L2.25596 17.766C2.38712 17.9939 2.56192 18.1937 2.77037 18.3539C2.97882 18.5142 3.21682 18.6317 3.47076 18.6999C3.7247 18.7681 3.98958 18.7855 4.25026 18.7512C4.51094 18.7169 4.7623 18.6315 4.98996 18.5L5.99996 17.916C6.15409 17.829 6.32845 17.7842 6.50543 17.7861C6.68242 17.7881 6.85576 17.8367 7.00796 17.927C7.15827 18.014 7.2831 18.139 7.36996 18.2894C7.45683 18.4398 7.50269 18.6103 7.50296 18.784V20C7.50296 20.5304 7.71367 21.0391 8.08874 21.4142C8.46382 21.7893 8.97253 22 9.50296 22H12.503C13.0334 22 13.5421 21.7893 13.9172 21.4142C14.2922 21.0391 14.503 20.5304 14.503 20V18.782C14.5056 18.6075 14.5535 18.4367 14.6419 18.2862C14.7303 18.1358 14.8562 18.0108 15.0074 17.9236C15.1585 17.8363 15.3297 17.7898 15.5042 17.7884C15.6787 17.7871 15.8505 17.8311 16.003 17.916L17.012 18.498C17.4713 18.7632 18.0172 18.8351 18.5296 18.6978C19.0419 18.5605 19.4787 18.2253 19.744 17.766L21.232 15.188C21.3632 14.9605 21.4484 14.7093 21.4826 14.4489C21.5168 14.1885 21.4994 13.9239 21.4313 13.6702C21.3633 13.4165 21.2459 13.1787 21.0859 12.9703C20.9259 12.762 20.7265 12.5872 20.499 12.456L19.499 11.877C19.3439 11.7867 19.2157 11.6565 19.1278 11.5001C19.0399 11.3436 18.9954 11.1664 18.999 10.987C18.9993 10.8118 19.0457 10.6398 19.1334 10.4881C19.2212 10.3365 19.3472 10.2106 19.499 10.123L20.499 9.544C20.7265 9.41276 20.9259 9.23798 21.0859 9.02965C21.2459 8.82132 21.3633 8.58352 21.4313 8.32982C21.4994 8.07613 21.5168 7.81151 21.4826 7.55108C21.4484 7.29065 21.3632 7.03951 21.232 6.812L19.742 4.234C19.6108 4.00639 19.4361 3.80684 19.2278 3.64677C19.0195 3.48669 18.7817 3.36922 18.528 3.30106C18.2743 3.23289 18.0097 3.21538 17.7492 3.24952C17.4887 3.28365 17.2375 3.36877 17.01 3.5L16 4.083C15.8475 4.16828 15.6755 4.21248 15.5008 4.21125C15.3261 4.21002 15.1547 4.1634 15.0035 4.07598C14.8522 3.98856 14.7263 3.86332 14.638 3.71256C14.5497 3.5618 14.5022 3.39069 14.5 3.216V2C14.5 1.46957 14.2892 0.960859 13.9142 0.585786C13.5391 0.210714 13.0304 0 12.5 0H9.49996C8.96953 0 8.46082 0.210714 8.08574 0.585786C7.71067 0.960859 7.49996 1.46957 7.49996 2V3.294C7.49993 3.44408 7.46035 3.5915 7.38521 3.72141C7.31008 3.85132 7.20203 3.95914 7.07196 4.034L6.91796 4.123C6.78781 4.19699 6.64067 4.23589 6.49096 4.23589C6.34125 4.23589 6.19411 4.19699 6.06396 4.123L4.98996 3.5C4.76246 3.36853 4.51129 3.28317 4.2508 3.24881C3.99031 3.21444 3.72559 3.23174 3.47179 3.29972C3.21798 3.3677 2.98006 3.48502 2.77161 3.64499C2.56317 3.80495 2.38828 4.00442 2.25696 4.232L0.768958 6.813C0.503987 7.27215 0.432143 7.81771 0.569213 8.3298C0.706283 8.84189 1.04105 9.27861 1.49996 9.544L2.49996 10.122C2.65492 10.2127 2.78292 10.3431 2.87079 10.4997C2.95867 10.6563 3.00325 10.8335 2.99996 11.013C3.00021 11.1883 2.95409 11.3606 2.86628 11.5123C2.77847 11.6641 2.65209 11.7899 2.49996 11.877ZM3.49996 8.39L2.49996 7.812L3.98996 5.234L5.06396 5.854C5.49754 6.10317 5.98888 6.23429 6.48896 6.23429C6.98904 6.23429 7.48037 6.10317 7.91396 5.854L8.06796 5.766C8.50219 5.51541 8.86301 5.15519 9.11432 4.72137C9.36562 4.28755 9.4986 3.79535 9.49996 3.294V2H12.5V3.216C12.502 3.74183 12.6419 4.25793 12.9057 4.71284C13.1694 5.16775 13.5478 5.54558 14.0031 5.80864C14.4584 6.0717 14.9747 6.21082 15.5005 6.21211C16.0264 6.2134 16.5434 6.07682 17 5.816L18.007 5.234L19.5 7.812L18.5 8.39C18.0446 8.65664 17.667 9.03779 17.4046 9.49557C17.1421 9.95335 17.0041 10.4718 17.0041 10.9995C17.0041 11.5272 17.1421 12.0456 17.4046 12.5034C17.667 12.9612 18.0446 13.3424 18.5 13.609L19.5 14.188L18.012 16.766L17 16.184C16.5434 15.9232 16.0264 15.7866 15.5005 15.7879C14.9747 15.7892 14.4584 15.9283 14.0031 16.1914C13.5478 16.4544 13.1694 16.8322 12.9057 17.2872C12.6419 17.7421 12.502 18.2582 12.5 18.784V20H9.49996V18.784C9.49848 18.2579 9.35897 17.7415 9.09537 17.2862C8.83177 16.8309 8.45331 16.4528 7.9978 16.1897C7.5423 15.9265 7.0257 15.7874 6.49964 15.7864C5.97357 15.7855 5.45645 15.9225 4.99996 16.184L3.99296 16.766L2.49996 14.188L3.49996 13.609C3.9553 13.3424 4.33294 12.9612 4.59536 12.5034C4.85779 12.0456 4.99586 11.5272 4.99586 10.9995C4.99586 10.4718 4.85779 9.95335 4.59536 9.49557C4.33294 9.03779 3.9553 8.65664 3.49996 8.39Z" fill="black" stroke="white" stroke-width="2" mask="url(#path-1-inside-1_909_605)"/>
</svg>
