<svg width="42" height="62" viewBox="0 0 42 62" fill="none" xmlns="http://www.w3.org/2000/svg">
<path d="M20.3727 38.9552C9.6622 37.8305 1.86688 28.1994 2.99158 17.489C4.11627 6.77852 13.7473 -1.01678 24.4577 0.107912C26.9657 0.372926 28.782 2.61585 28.517 5.1238C28.252 7.63174 26.0091 9.44806 23.5011 9.18304C17.8001 8.58191 12.6678 12.7381 12.0667 18.4392C11.4656 24.1402 15.6218 29.2724 21.3228 29.8736C27.0239 30.4747 32.1561 26.3185 32.7572 20.6174C32.8154 20.0551 32.8283 19.4798 32.796 18.9239C32.6538 16.4095 34.58 14.2506 37.0944 14.1084C39.6088 13.9662 41.7677 15.8924 41.9099 18.4068C41.9681 19.454 41.9422 20.5205 41.8324 21.5741C40.7077 32.2845 31.0766 40.0798 20.3662 38.9552H20.3727Z" fill="white"/>
<path d="M18.0198 61.3069C7.30929 60.1823 -0.486022 50.5512 0.638673 39.8408C0.903688 37.3328 3.14662 35.5165 5.65456 35.7815C8.1625 36.0466 9.97882 38.2895 9.71381 40.7974C9.11268 46.4985 13.2689 51.6307 18.9699 52.2318C24.671 52.833 29.8032 48.6767 30.4043 42.9757C30.6693 40.4678 32.9123 38.6514 35.4202 38.9165C37.9282 39.1815 39.7445 41.4244 39.4795 43.9323C38.3548 54.6428 28.7237 62.4381 18.0133 61.3134L18.0198 61.3069Z" fill="white"/>
<path d="M31.3223 11.9432C29.8615 10.8185 32.0268 3.26878 32.9705 2.04713C34.5736 -0.0277361 37.5534 -0.409098 39.6218 1.19392C41.6966 2.79693 42.078 5.77673 40.475 7.84513C39.5313 9.06678 32.7766 13.0679 31.3158 11.9432H31.3223Z" fill="white"/>
</svg>
