<svg width="20" height="20" viewBox="0 0 20 20" fill="none" xmlns="http://www.w3.org/2000/svg">
<path d="M12.2227 12.6956L11.9102 12.3832L11.5617 12.6549C10.37 13.5839 8.87969 14.045 7.37154 13.9514C5.86338 13.8578 4.44151 13.216 3.37379 12.1467L3.01999 12.5L3.37345 12.1464C2.79724 11.5705 2.34014 10.8867 2.02828 10.134C1.71642 9.3814 1.55591 8.57471 1.55591 7.76003C1.55591 6.94535 1.71642 6.13865 2.02828 5.38602C2.34014 4.6334 2.79724 3.94959 3.37345 3.37367L3.37391 3.37321C4.48905 2.25576 5.98846 1.60578 7.56636 1.55584C9.14425 1.5059 10.6818 2.05975 11.8653 3.10444C13.0489 4.14913 13.7894 5.60598 13.9358 7.17786C14.0822 8.74974 13.6234 10.3183 12.6531 11.5635L12.3815 11.912L12.6939 12.2244L17.1219 16.6523C17.1811 16.7149 17.2138 16.7981 17.2131 16.8843C17.2123 16.9717 17.1772 17.0554 17.1154 17.1172C17.0536 17.179 16.97 17.214 16.8826 17.2148C16.7964 17.2155 16.7132 17.1828 16.6506 17.1235L12.2227 12.6956ZM7.2165 2.25177C6.31096 2.34096 5.4473 2.65127 4.69832 3.14825L2.72332 7.76169L2.22332 7.76177C2.22332 7.76204 2.22332 7.76232 2.22332 7.76259C2.2237 9.04301 2.66793 10.2837 3.48035 11.2734C4.29295 12.2633 5.42364 12.9408 6.67976 13.1905C7.93589 13.4402 9.23974 13.2467 10.3692 12.6429C11.4986 12.0391 12.3837 11.0623 12.8737 9.87905C13.3638 8.6958 13.4284 7.37925 13.0565 6.15371C12.6847 4.92817 11.8995 3.86946 10.8346 3.15797C9.76967 2.44648 8.49103 2.12622 7.2165 2.25177Z" fill="black" stroke="#F2404D"/>
</svg>
