<svg width="22" height="14" viewBox="0 0 22 14" fill="none" xmlns="http://www.w3.org/2000/svg">
<path d="M3.06048 8.35353L7.34988 12.6429C7.43938 12.7369 7.48885 12.8621 7.48772 12.992C7.48658 13.1231 7.434 13.2485 7.3413 13.3412C7.24859 13.434 7.12319 13.4865 6.99209 13.4877C6.86219 13.4888 6.737 13.4393 6.64299 13.3498L0.646637 7.35348C0.64662 7.35346 0.646602 7.35344 0.646584 7.35343C0.552882 7.25967 0.500244 7.13254 0.500244 6.99998C0.500244 6.86742 0.552882 6.74029 0.646584 6.64653C0.646602 6.64652 0.64662 6.6465 0.646637 6.64648L6.64298 0.650139C6.737 0.560629 6.86219 0.511158 6.99209 0.512287C7.12319 0.513426 7.24859 0.566011 7.3413 0.658715C7.434 0.751419 7.48658 0.876825 7.48772 1.00792C7.48885 1.13782 7.43938 1.26302 7.34987 1.35703L3.06048 5.64643L2.20692 6.49998H3.41403H21C21.1326 6.49998 21.2598 6.55266 21.3536 6.64643C21.4474 6.74019 21.5 6.86737 21.5 6.99998C21.5 7.13259 21.4474 7.25977 21.3536 7.35353C21.2598 7.4473 21.1326 7.49998 21 7.49998H3.41403H2.20692L3.06048 8.35353Z" fill="black" stroke="white"/>
</svg>
