<svg width="18" height="20" viewBox="0 0 18 20" fill="none" xmlns="http://www.w3.org/2000/svg">
<path d="M9.28 0.585266L9.28026 0.585443L17.28 5.98526C17.3478 6.03108 17.4033 6.09284 17.4416 6.1651C17.48 6.23737 17.5 6.31795 17.5 6.39976V6.40002V19C17.5 19.1326 17.4473 19.2598 17.3536 19.3536C17.2598 19.4473 17.1326 19.5 17 19.5H1C0.867391 19.5 0.740214 19.4473 0.646447 19.3536C0.552679 19.2598 0.5 19.1326 0.5 19L0.5 6.40002L0.5 6.39977C0.499959 6.31795 0.519995 6.23737 0.558353 6.1651C0.59666 6.09293 0.652072 6.03124 0.719737 5.98544C0.719824 5.98538 0.719912 5.98532 0.72 5.98527L8.71974 0.585443L8.72 0.585265C8.80268 0.529377 8.9002 0.499512 9 0.499512C9.0998 0.499512 9.19732 0.529377 9.28 0.585266ZM11 18.5H11.5V18V12V11.5H11H7H6.5V12V18V18.5H7H11ZM16 18.5H16.5V18V6.93202V6.66627L16.2797 6.51759L9.27974 1.79259L9 1.60377L8.72026 1.79259L1.72026 6.51759L1.5 6.66627V6.93202V18V18.5H2H5H5.5V18V11C5.5 10.8674 5.55268 10.7402 5.64645 10.6465C5.74022 10.5527 5.86739 10.5 6 10.5H12C12.1326 10.5 12.2598 10.5527 12.3536 10.6465C12.4473 10.7402 12.5 10.8674 12.5 11V18V18.5H13H16Z" fill="black" stroke="white"/>
</svg>
